# WaveFront *.obj file (generated by Autodesk ATF)

mtllib Arrow.mtl

g Solid1

v -4.242641 0.000000 5.757359
v -4.242641 3.000000 5.757359
v -1.742641 0.000000 0.000000
v -1.742641 0.000000 5.757359
v -1.742641 3.000000 0.000000
v -1.742641 3.000000 5.757359
v 0.000000 0.000000 10.000000
v 0.000000 3.000000 10.000000
v 1.742641 0.000000 0.000000
v 1.742641 0.000000 5.757359
v 1.742641 3.000000 0.000000
v 1.742641 3.000000 5.757359
v 4.242641 0.000000 5.757359
v 4.242641 3.000000 5.757359
vt 0.000000 0.000000 0.000000
vt 6.350000 0.000000 0.000000
vt 6.350000 7.620000 0.000000
vt 0.000000 7.620000 0.000000
vt 0.000000 0.000000 0.000000
vt 15.240000 0.000000 0.000000
vt 15.240000 7.620000 0.000000
vt 0.000000 7.620000 0.000000
vt 0.000000 0.000000 0.000000
vt 15.240000 0.000000 0.000000
vt 15.240000 7.620000 0.000000
vt 0.000000 7.620000 0.000000
vt 0.000000 0.000000 0.000000
vt 6.350000 0.000000 0.000000
vt 6.350000 7.620000 0.000000
vt 0.000000 7.620000 0.000000
vt 0.000000 0.000000 0.000000
vt 14.623693 0.000000 0.000000
vt 14.623693 7.620000 0.000000
vt 0.000000 7.620000 0.000000
vt 0.000000 0.000000 0.000000
vt 8.852614 0.000000 0.000000
vt 8.852614 7.620000 0.000000
vt 0.000000 7.620000 0.000000
vt 0.000000 0.000000 0.000000
vt 14.623693 0.000000 0.000000
vt 14.623693 7.620000 0.000000
vt 0.000000 7.620000 0.000000
vt 1.923693 4.426307 0.000000
vt -12.700000 4.426307 0.000000
vt -12.700000 -4.426307 0.000000
vt 1.923693 -4.426307 0.000000
vt 1.923693 -10.776307 0.000000
vt 12.700000 0.000000 0.000000
vt 1.923693 10.776307 0.000000
vt 12.700000 4.426307 0.000000
vt -1.923693 4.426307 0.000000
vt -1.923693 10.776307 0.000000
vt -12.700000 0.000000 0.000000
vt -1.923693 -10.776307 0.000000
vt -1.923693 -4.426307 0.000000
vt 12.700000 -4.426307 0.000000
vn 0.000000 0.000000 -2.540000
vn 0.000000 0.000000 -2.540000
vn 0.000000 0.000000 -2.540000
vn 0.000000 0.000000 -2.540000
vn 1.796051 0.000000 1.796051
vn 1.796051 0.000000 1.796051
vn 1.796051 0.000000 1.796051
vn 1.796051 0.000000 1.796051
vn -1.796051 0.000000 1.796051
vn -1.796051 0.000000 1.796051
vn -1.796051 0.000000 1.796051
vn -1.796051 0.000000 1.796051
vn 0.000000 0.000000 -2.540000
vn 0.000000 0.000000 -2.540000
vn 0.000000 0.000000 -2.540000
vn 0.000000 0.000000 -2.540000
vn -2.540000 0.000000 0.000000
vn -2.540000 0.000000 0.000000
vn -2.540000 0.000000 0.000000
vn -2.540000 0.000000 0.000000
vn 0.000000 0.000000 -2.540000
vn 0.000000 0.000000 -2.540000
vn 0.000000 0.000000 -2.540000
vn 0.000000 0.000000 -2.540000
vn 2.540000 0.000000 0.000000
vn 2.540000 0.000000 0.000000
vn 2.540000 0.000000 0.000000
vn 2.540000 0.000000 0.000000
vn 0.000000 2.540000 0.000000
vn 0.000000 2.540000 0.000000
vn 0.000000 2.540000 0.000000
vn 0.000000 2.540000 0.000000
vn 0.000000 2.540000 0.000000
vn 0.000000 2.540000 0.000000
vn 0.000000 2.540000 0.000000
vn 0.000000 -2.540000 0.000000
vn 0.000000 -2.540000 0.000000
vn 0.000000 -2.540000 0.000000
vn 0.000000 -2.540000 0.000000
vn 0.000000 -2.540000 0.000000
vn 0.000000 -2.540000 0.000000
vn 0.000000 -2.540000 0.000000
usemtl 191,191,191
f 13/1/1 10/2/2 14/4/4
f 14/4/4 10/2/2 12/3/3
f 7/5/5 13/6/6 8/8/8
f 8/8/8 13/6/6 14/7/7
f 1/9/9 7/10/10 2/12/12
f 2/12/12 7/10/10 8/11/11
f 4/13/13 1/14/14 6/16/16
f 6/16/16 1/14/14 2/15/15
f 3/17/17 4/18/18 5/20/20
f 5/20/20 4/18/18 6/19/19
f 9/21/21 3/22/22 11/24/24
f 11/24/24 3/22/22 5/23/23
f 10/25/25 9/26/26 12/28/28
f 12/28/28 9/26/26 11/27/27
f 11/30/30 5/31/31 12/29/29
f 12/29/29 5/31/31 6/32/32
f 12/29/29 6/32/32 8/34/34
f 8/34/34 6/32/32 2/33/33
f 8/34/34 14/35/35 12/29/29
f 9/36/36 10/37/37 3/42/42
f 3/42/42 10/37/37 4/41/41
f 4/41/41 10/37/37 7/39/39
f 4/41/41 7/39/39 1/40/40
f 10/37/37 13/38/38 7/39/39

# 14 vertices
# 42 texture params
# 42 normals
# 24 facets

# 1 groups
